# xmcd
#
# Track frame offsets:
#	150
#	15867
#	31422
#	44655
#	54935
#	66372
#	79952
#	91777
#	110180
#	123657
#
# Disc length: 1815 seconds
#
# Revision: 3
# Processed by: cddbd v1.5.1PL0 Copyright (c) Steve Scherf et al.
# Submitted via: MusicManager 7.2.0.0 
#
DISCID=8207150a
DTITLE=Various Artist - New Country Collection, Volume 4, Number 2
DYEAR=1997
DGENRE=Country
TTITLE0=George Ducas - Every Time She Passes By
TTITLE1=Steve Kolander - Romeo
TTITLE2=Johnny Paycheck - (Pardon Me) I've Got Someone To Kill
TTITLE3=Tim Carroll - Open Flame
TTITLE4=Charlie Rich - Set Me Free
TTITLE5=Lefty Frizzell - Saginaw, Michigan
TTITLE6=Bluegrass '96 - Up On The Blue Ridge
TTITLE7=Carrie Newcomer - Crazy In Love
TTITLE8=Erica Wheeler - Maryland County Road
TTITLE9=Reno Brothers - No Longer A Sweetheart Of Mine
EXTD=
EXTT0=
EXTT1=
EXTT2=
EXTT3=
EXTT4=
EXTT5=
EXTT6=
EXTT7=
EXTT8=
EXTT9=
PLAYORDER=
